<?xml version="1.0" encoding="UTF-8"?>
<svg id="_レイヤー_1" data-name="レイヤー_1" xmlns="http://www.w3.org/2000/svg" width="136.9" height="135.4" version="1.1" viewBox="0 0 136.9 135.4">
  <!-- Generator: Adobe Illustrator 29.1.0, SVG Export Plug-In . SVG Version: 2.1.0 Build 142)  -->
  <defs>
    <style>
      .st0 {
        fill: #7c7604;
      }
    </style>
  </defs>
  <path class="st0" d="M71.7,105.9h-7.3s-5.3,1.2-7.1,10.4h21s.6-10.4-6.7-10.4Z"/>
  <path class="st0" d="M112.6,9.8v5h-17.2V0h-53v14.8h-16.3v-5H0v118.2h26.1v-7.1h16.3v14.5h53v-14.5h17.2v7.1h24.3V9.8h-24.3ZM42.4,97.8h-16.3v-60.1h16.3v60.1ZM47.3,53.3h26.1v-16.9h-19.7V7.4h7.7v6.1h19.7v7.7h-19.7v11.6h17.2v20.6h11v6.5h-42.2v-6.5ZM92.1,120.9h-8.7v-.6h-29.9v.6h-8.7v-39.4h8.7v31.1l1.8-.2s1.8-12.3,9.2-13.4v-26.5h8.7v26.3s8.4,3.1,9,13.6.6.4,1.2.4v-31.3h8.7v39.4ZM112.6,97.8h-17.2v-60.1h17.2v60.1Z"/>
</svg>